<svg id="Capa_1" enable-background="new 0 0 512 512" height="512" viewBox="0 0 512 512" width="512" xmlns="http://www.w3.org/2000/svg"><g><path d="m512 256c0 60.5-20.99 116.09-56.08 159.91l-.01.01c-5.42 6.77-18.3 7.53-24.37 13.71-37.28 37.97-334.192 17.088-343.922 7.548-.93-.91-12.668-.198-13.588-1.128-45.77-46.24-74.03-109.85-74.03-180.05 0-141.38 114.62-256 256-256s256 114.62 256 256z" fill="#f4dd45"/><g><path d="m308.46 504.02-11.03 4.63c-9.7 1.59-19.58 2.62-29.61 3.08-3.92.18-7.86.27-11.82.27-3.14 0-6.26-.06-9.37-.17-17.81-.64-35.15-3.1-51.85-7.2-1.83-.45-3.65-.92-5.47-1.41l-40.87-97.31 101-42.42z" fill="#f9c5ac"/><path d="m194.78 504.63c-1.83-.45-3.65-.92-5.47-1.41-28-7.53-54.11-19.7-77.44-35.62-1.25-.86-2.49-1.72-3.72-2.59 0 0-.01 0-.01-.01-11.14-7.9-21.61-16.65-31.34-26.19-.93-.91-1.85-1.83-2.77-2.76l78.14-32.87z" fill="#dae4ea"/><path d="m246.63 511.83c-51.48-1.85-99.1-18.91-138.48-46.82l-9.77-23.27c-6.01-14.31.71-30.78 15.02-36.79l49.19-20.66c14.31-6.01 30.78.72 36.79 15.03z" fill="#f6f9f9"/><path d="m215.07 436.67c-6-14.3-22.48-21.02-36.78-15.01l-49.2 20.66c-10.55 4.43-16.98 14.54-17.22 25.28-1.25-.86-2.49-1.72-3.72-2.59 0 0-.01 0-.01-.01l-9.77-23.25c-6.01-14.32.72-30.79 15.03-36.8l49.19-20.66c14.3-6 30.78.72 36.8 15.03z" fill="#dae4ea"/><path d="m290.231 365.406 83.363-63.828-23.923-39.5c-8.338-13.766-25.947-18.669-40.199-11.192l-36.595 19.198s-70.881 18.969-38.874 95.175" fill="#efb29a"/><path d="m272.75 249.876h60.779v133.938h-60.779z" fill="#d82e3d" transform="matrix(.922 -.387 .387 .922 -99.043 142.107)"/><circle cx="231.093" cy="145.308" fill="#dd636e" r="145.27"/><path d="m274.506 248.671c-56.994 23.938-122.838-2.956-146.776-59.95s2.956-122.839 59.95-146.777 122.838 2.956 146.776 59.95c23.938 56.995-2.956 122.839-59.95 146.777z" fill="#f6f9f9"/><path d="m211.644 100.889c-4.433 1.862-6.517 6.964-4.655 11.397l28.978 68.994c1.862 4.433 6.964 6.517 11.397 4.655s6.517-6.964 4.655-11.397l-28.978-68.994c-1.861-4.433-6.964-6.517-11.397-4.655z" fill="#dd636e"/><path d="m267.178 79.965-18.962 7.964c-2.131.895-3.819 2.601-4.691 4.742s-.857 4.541.042 6.67c0 .001 10.865 25.734 14.071 33.367 3.909 9.307 14.19 33.543 14.19 33.543.902 2.125 2.611 3.806 4.752 4.671 2.13.861 4.515.845 6.633-.045.01-.004.021-.009.031-.013.572-.243 14.068-5.973 19.429-8.335 19.768-8.713 26.917-32.175 16.999-55.789-10.425-24.824-31.522-35.584-52.494-26.775zm28.474 66.633c-2.557 1.127-7.146 3.097-11.198 4.828-3.351-7.907-8.312-19.623-10.763-25.459-2.048-4.877-7.219-17.133-10.693-25.362l10.922-4.587c14.017-5.887 24.533 5.162 29.701 17.465 7.247 17.255 1.22 29.065-7.969 33.115z" fill="#dd636e"/><path d="m195.27 151.707c1.01-4.936.604-10.212-1.49-15.198-5.535-13.179-20.761-19.398-33.94-13.863l-20.041 8.417c-4.433 1.862-6.517 6.964-4.655 11.397l13.344 31.77.022.051 15.613 37.173c.897 2.135 2.607 3.824 4.752 4.695 2.133.866 4.523.851 6.645-.04.011-.005.024-.01.036-.015 0 0 18.392-7.821 23.471-9.954 14.666-6.16 21.586-23.103 15.426-37.768-3.592-8.547-10.853-14.435-19.183-16.665zm-28.689-13.008c4.328-1.818 9.328.224 11.146 4.553 1.818 4.328-.225 9.328-4.553 11.146-1.481.622-4.278 1.806-7.317 3.096l-4.69 1.97-6.602-15.718zm25.702 51.39c-2.846 1.195-9.859 4.171-15.495 6.564l-8.871-21.12c1.534-.652 3.144-1.335 4.691-1.991l10.816-4.543c5.814-2.442 12.532.302 14.974 6.116 2.443 5.814-.301 12.532-6.115 14.974z" fill="#dd636e"/><path d="m455.91 415.92c-44.61 55.7-112.03 92.35-188.09 95.81-6.67-5.37-12.13-12.43-15.68-20.87l-38.11-90.75c-4.22-10.06-4.78-20.74-2.27-30.56 3.59-14.19 13.57-26.57 28.09-32.67l139.48-58.58c12.5-5.25 27.25 0 32.93 12.31 1.58 3.4 2.33 6.96 2.33 10.46.02 9.8-5.75 19.11-15.33 23.13.45-.19.89-.36 1.34-.51.47-.16.91-.31 1.37-.44.71-.21 1.41-.38 2.13-.53 11.43-2.26 23.23 3.72 27.91 14.86 1.22 2.89 1.83 5.86 1.94 8.81.02 0 .02 0 .01.02.32 10.07-5.48 19.79-15.33 23.93.89-.37 1.81-.7 2.71-.96.72-.22 1.42-.38 2.14-.53 11.42-2.26 23.23 3.73 27.91 14.87 1.21 2.88 1.83 5.85 1.94 8.8.34 10.1-5.47 19.82-15.32 23.95 5.93-2.49 12.27-2.52 17.9-.55z" fill="#f9c5ac"/><g fill="#efb29a"><path d="m414.587 301.073c-6.971-6.897-17.652-9.299-27.255-5.265l-175.575 73.742c3.591-14.188 13.57-26.568 28.096-32.669l139.475-58.58c12.505-5.252 27.247-.004 32.936 12.308 1.572 3.403 2.324 6.958 2.323 10.464z"/><path d="m433.958 346.397c-6.971-6.454-17.329-8.619-26.657-4.701l-1.917.805c-4.904 2.06-10.546-.245-12.6-5.135-1.03-2.452-.973-5.078-.041-7.359s2.738-4.217 5.19-5.247l1.325-.556c.451-.189.894-.359 1.342-.514.463-.161.911-.316 1.372-.444.706-.214 1.416-.379 2.131-.53 11.417-2.259 23.229 3.721 27.91 14.867 1.214 2.888 1.832 5.861 1.945 8.814z"/><path d="m453.335 392.531c-6.971-6.454-17.329-8.619-26.657-4.701l-1.917.805c-4.904 2.06-10.546-.245-12.6-5.135-1.03-2.452-.973-5.078-.041-7.359s2.738-4.217 5.19-5.246l1.325-.556c.888-.373 1.799-.689 2.714-.957.706-.214 1.415-.379 2.131-.53 11.418-2.259 23.229 3.721 27.91 14.867 1.213 2.886 1.832 5.859 1.945 8.812z"/><path d="m455.92 415.91-.01.01c-5.42 6.77-11.18 13.25-17.25 19.43-3.08-.56-5.82-2.62-7.12-5.72-1.03-2.45-.97-5.07-.04-7.36.93-2.28 2.73-4.21 5.19-5.24l1.32-.56c.89-.37 1.8-.69 2.72-.96.7-.21 1.41-.37 2.13-.53 4.44-.88 8.94-.51 13.06.93z"/></g></g></g></svg>